<svg width="125" height="32" viewBox="0 0 125 32" fill="none" xmlns="http://www.w3.org/2000/svg">
<path d="M36.6137 0C40.3258 0 43.3531 2.94701 43.5059 6.64025L43.5119 6.93333V25.0667C43.5119 28.7977 40.5798 31.8403 36.9053 31.9939L36.6137 32H18.5722C14.8601 32 11.8328 29.053 11.68 25.3598L11.6739 25.0667L11.6732 18.1625L7.29184 18.1625C4.52647 18.1625 2.2487 16.0277 2.1276 13.3225L2.12253 13.0958L2.12147 7.10689C0.867122 6.50749 0 5.22219 0 3.73333C0 1.67147 1.66301 0 3.71443 0C5.76586 0 7.42887 1.67147 7.42887 3.73333C7.42887 5.22219 6.56174 6.50749 5.3074 7.10689L5.30633 13.0667C5.30633 14.0334 6.0971 14.848 7.12727 14.9271L7.29184 14.9333L11.6732 14.9326L11.6739 6.93333C11.6739 3.20234 14.606 0.159664 18.2806 0.00608249L18.5722 0H36.6137ZM36.6137 3.2H18.5722C16.5967 3.2 14.9815 4.74995 14.8645 6.70591L14.8577 6.93333V25.0667C14.8577 27.0522 16.3998 28.6757 18.3459 28.7932L18.5722 28.8H36.6137C38.5891 28.8 40.2044 27.25 40.3214 25.2941L40.3281 25.0667V6.93333C40.3281 4.87147 38.6651 3.2 36.6137 3.2ZM99.4937 9.13087C101.682 9.13087 103.4 9.79198 104.662 11.1277C105.924 12.4634 106.555 14.1364 106.555 16.1602C106.555 16.4233 106.539 16.7092 106.504 17.0121L106.461 17.3205H95.2249C95.3189 18.4943 95.7619 19.4387 96.5673 20.1538C97.3727 20.8689 98.46 21.2332 99.8158 21.2332C101.616 21.2332 102.89 20.5713 103.625 19.2361L103.749 18.9935L106.38 19.776C105.883 20.8689 105.064 21.7998 103.923 22.5689C102.878 23.2738 101.617 23.6614 100.143 23.7211L99.7353 23.7292L99.7621 23.7562C97.5741 23.7562 95.8022 23.0816 94.4329 21.7324C93.0637 20.3832 92.3791 18.6157 92.3791 16.4435C92.3791 14.3523 93.0369 12.6118 94.3524 11.2221C95.6679 9.83246 97.3861 9.13087 99.4937 9.13087ZM71.6527 9.11738C73.7602 9.11738 75.5187 9.80547 76.9148 11.1951C78.3109 12.5848 79.0089 14.3253 79.0089 16.4165C79.0089 18.5078 78.3109 20.2483 76.9148 21.6379C75.606 22.9408 73.9904 23.6388 72.0571 23.721L71.6661 23.7292H71.6527C69.5452 23.7292 67.8001 23.0276 66.4041 21.6379C65.008 20.2483 64.31 18.5078 64.31 16.4165C64.31 14.3388 65.008 12.5983 66.4041 11.2086C67.8001 9.81896 69.5452 9.11738 71.6527 9.11738ZM116.725 9.11738C118.833 9.11738 120.591 9.80547 121.988 11.1951C123.384 12.5848 124.082 14.3253 124.082 16.4165C124.082 18.5078 123.384 20.2483 121.988 21.6379C120.679 22.9408 119.063 23.6388 117.13 23.721L116.739 23.7292H116.725C114.618 23.7292 112.873 23.0276 111.477 21.6379C110.081 20.2483 109.383 18.5078 109.383 16.4165C109.383 14.3388 110.081 12.5983 111.477 11.2086C112.873 9.81896 114.618 9.11738 116.725 9.11738ZM27.9467 8.53333C29.8093 8.53333 31.3687 8.98795 32.6394 9.89717C33.91 10.8064 34.7041 11.8396 35.0218 13.0106C35.1381 13.8306 34.8147 14.3675 34.0518 14.6212C33.2888 14.8749 32.6543 14.5998 32.1484 13.7958C31.9319 13.0932 31.4409 12.4871 30.6757 11.9636C29.9104 11.4401 29.0152 11.1784 27.99 11.1784C26.575 11.1784 25.4199 11.6467 24.5246 12.5697C23.6294 13.4927 23.1818 14.6224 23.1818 15.9587C23.1818 17.2674 23.6294 18.3971 24.5246 19.3476C25.4199 20.2982 26.575 20.7665 27.9756 20.7665C29.0007 20.7665 29.896 20.5186 30.6612 20.0226C31.4265 19.5267 31.9174 18.9343 32.134 18.2317C32.5964 17.5454 33.1776 17.2878 33.8777 17.4589C34.5778 17.63 34.9543 18.1402 35.0074 18.9894C34.6897 20.1328 33.91 21.1523 32.6538 22.0615C31.3976 22.9707 29.8382 23.4667 27.9756 23.4667C25.7375 23.4667 23.8749 22.7503 22.3877 21.3176C20.9005 19.8849 20.1641 18.1078 20.1641 15.9862C20.1641 13.8647 20.9005 12.0876 22.3732 10.6686C23.846 9.24969 25.7086 8.53333 27.9467 8.53333ZM50.7942 3.1944V11.5324C51.868 10.0086 53.3343 9.20193 55.193 9.11229L55.5461 9.10389V9.0769C57.3046 9.0769 58.6604 9.61658 59.6135 10.7094C60.4985 11.7242 60.9668 13.088 61.0292 14.8008L61.0364 15.2023V23.3514H58.1772V15.7285C58.1772 14.5007 57.8953 13.5428 57.3181 12.8547C56.7408 12.1666 55.8951 11.8158 54.781 11.8158C53.5728 11.8158 52.6063 12.234 51.8815 13.084C51.217 13.8632 50.8571 14.8691 50.8017 16.1121L50.7942 16.457V23.3649H47.9081V3.1944H50.7942ZM89.7552 9.28126L90.1171 9.31976V12.0182C88.6003 11.7888 87.4324 12.0856 86.6136 12.9086C85.8493 13.6768 85.4476 14.9385 85.3974 16.7049L85.392 17.0911V23.3649H82.5059V9.46817H85.392L85.3913 11.6704L85.5095 11.4418C85.9202 10.7035 86.4941 10.1401 87.2311 9.7515C87.9589 9.36773 88.8035 9.20783 89.7552 9.28126ZM71.6527 11.7483C70.3372 11.7483 69.2499 12.1936 68.4042 13.084C67.5585 13.9745 67.1289 15.0943 67.1289 16.4435C67.1289 17.7657 67.5585 18.8721 68.4042 19.7626C69.2499 20.653 70.3372 21.0983 71.6527 21.0983C72.9682 21.0983 74.0555 20.653 74.9147 19.7626C75.7738 18.8721 76.2033 17.7657 76.2033 16.4435C76.2033 15.0943 75.7738 13.9745 74.9147 13.084C74.0555 12.1936 72.9682 11.7483 71.6527 11.7483ZM116.725 11.7483C115.41 11.7483 114.323 12.1936 113.477 13.084C112.631 13.9745 112.202 15.0943 112.202 16.4435C112.202 17.7657 112.631 18.8721 113.477 19.7626C114.323 20.653 115.41 21.0983 116.725 21.0983C118.041 21.0983 119.128 20.653 119.987 19.7626C120.847 18.8721 121.276 17.7657 121.276 16.4435C121.276 15.0943 120.847 13.9745 119.987 13.084C119.128 12.1936 118.041 11.7483 116.725 11.7483ZM99.5071 11.6404C98.3124 11.6404 97.3325 12.0047 96.5539 12.7332C95.8532 13.3889 95.4243 14.1758 95.2672 15.0938L95.2249 15.4046H103.722C103.628 14.2983 103.212 13.3943 102.474 12.6928C101.735 11.9912 100.742 11.6404 99.5071 11.6404Z" fill="#1D2028"/>
</svg>
