<svg width="33" height="24" viewBox="0 0 33 24" fill="none" xmlns="http://www.w3.org/2000/svg">
<path fill-rule="evenodd" clip-rule="evenodd" d="M3.93162 5.44455C4.86143 5.00285 5.50427 4.05513 5.50427 2.95726C5.50427 1.4373 4.2721 0.205124 2.75214 0.205124C1.23217 0.205124 0 1.4373 0 2.95726C0 4.05513 0.642841 5.00285 1.57265 5.44455V9.8591L1.5764 10.0262C1.66613 12.0204 3.3538 13.5941 5.40275 13.5941H8.64957V18.6838C8.64957 21.5065 10.9379 23.7949 13.7607 23.7949H27.1282C29.951 23.7949 32.2393 21.5065 32.2393 18.6838V5.31624C32.2393 2.49345 29.951 0.205124 27.1282 0.205124H13.7607C10.9379 0.205124 8.64957 2.49345 8.64957 5.31624V11.2137H5.40275L5.28081 11.209C4.51753 11.1508 3.93162 10.5502 3.93162 9.8376V5.44455ZM27.1282 2.5641C28.6482 2.5641 29.8803 3.79627 29.8803 5.31624V18.6838C29.8803 20.2037 28.6482 21.4359 27.1282 21.4359H13.7607C12.2407 21.4359 11.0085 20.2037 11.0085 18.6838V5.31624C11.0085 3.79627 12.2407 2.5641 13.7607 2.5641H27.1282ZM20.7279 17.5043C22.108 17.5043 23.2634 17.1387 24.1942 16.4684C25.125 15.7981 25.7027 15.0466 25.938 14.2037C25.938 14.2037 25.8791 13.2647 25.101 13.0755C24.3229 12.8863 23.8091 13.6452 23.8091 13.6452C23.6486 14.1631 23.2848 14.5998 22.7178 14.9654C22.1508 15.331 21.4875 15.5138 20.7279 15.5138C19.6902 15.5138 18.8344 15.1685 18.1711 14.4678C17.5078 13.7671 17.1761 12.9343 17.1761 11.9695C17.1761 10.9844 17.5078 10.1517 18.1711 9.47128C18.8344 8.79086 19.6902 8.44558 20.7386 8.44558C21.4982 8.44558 22.1615 8.63853 22.7285 9.02444C23.2955 9.41035 23.6593 9.85719 23.8198 10.3751C23.8198 10.3751 24.382 11.2641 25.23 10.9836C26.0779 10.703 25.9487 9.79626 25.9487 9.79626C25.7134 8.93304 25.1249 8.17138 24.1835 7.50112C23.2421 6.83085 22.0866 6.49572 20.7066 6.49572C19.0483 6.49572 17.6682 7.02381 16.577 8.06982C15.4858 9.11584 14.9402 10.4259 14.9402 11.9898C14.9402 13.5538 15.4858 14.8638 16.5877 15.92C17.6896 16.9762 19.0697 17.5043 20.7279 17.5043Z" fill="#222228"/>
</svg>
