<?xml version="1.0" encoding="utf-8"?>
<svg version="1.1" xmlns="http://www.w3.org/2000/svg" xmlns:xlink="http://www.w3.org/1999/xlink" x="0px" y="0px"
	 viewBox="0 0 1160 772" style="enable-background:new 0 0 1160 772;" xml:space="preserve">
<style type="text/css">
	.st0{fill:#F0F1FB;}
	.st1{opacity:0.82;fill:#5567D5;}
	.st2{fill:#FFFFFF;}
	.st3{opacity:0.04;}
	.st4{fill:#CBCEDB;}
	.st5{fill:#E0E2E9;}
	.st6{fill:#EDEDED;}
	.st7{fill:#FFFFFF;stroke:#F2F2F2;stroke-width:2;stroke-miterlimit:10;}
	.st8{fill-rule:evenodd;clip-rule:evenodd;fill:#5567D5;stroke:#5567D5;stroke-width:2;stroke-miterlimit:10;}
</style>
<g id="Background">
</g>
<g id="object">
	<g>
		<path class="st0" d="M972.0786133,473.644104c-27.8323975,224.050415-226.369812,116.4320068-320.5359497,240.7498169
			S331.0067444,606.6066284,331.0067444,473.644104s256.9853821-22.7297668,320.5359192-240.7498474
			S972.0786133,340.6815796,972.0786133,473.644104z"/>
		<path class="st1" d="M812.1409912,583.9579468l-225.2498169,79.2210693
			c-8.5985718,3.0241089-18.0205688-1.494812-21.0447388-10.0933838L453.640564,334.0498657
			c-3.0241699-8.5985718,1.4947815-18.0205994,10.0933533-21.0447693l225.2497864-79.2210388
			c8.5985718-3.0241547,18.0206299,1.4947968,21.0447998,10.0933685L822.234375,562.913208
			C825.2584839,571.5117798,820.739563,580.9337769,812.1409912,583.9579468z"/>
		<path class="st2" d="M800.4077148,567.588501l-214.6133423,75.4801636
			c-2.2625732,0.7957764-4.7418823-0.3933105-5.5375977-2.6558838L476.1119995,344.2972412
			c-0.7957764-2.2626038,0.3933411-4.7418518,2.6559143-5.5376282l214.6133728-75.4801941
			c2.2625732-0.7957458,4.7418823,0.3933411,5.5375977,2.6559448l104.1447754,296.1154785
			C803.859436,564.3134766,802.6703491,566.7927246,800.4077148,567.588501z"/>
		<path class="st3" d="M815.0971069,582.2722168l-228.3282471,80.559021
			c-3.430542,2.0811768-14.8231201,2.8865967-20.3053589-7.9910278L454.7029114,334.2425232L815.0971069,582.2722168z"/>
		<g>
			<path class="st4" d="M644.0650024,239.8101654l-38.1062012,13.4020691l-1.9144897-5.4434509
				c-5.843811-16.6158142-24.0510864-25.3482819-40.6669922-19.504425l-0.6077881,0.2137604
				c-16.6160278,5.8439026-25.3485107,24.0511627-19.5046387,40.6669922l1.9144897,5.4434509l-38.1062317,13.4020691
				c-1.9703979,0.6929932-3.0061035,2.8521729-2.3130798,4.8226318l13.522583,38.448822
				c0.6930542,1.9705505,2.8522949,3.0060425,4.8226929,2.3130493l136.9918823-48.1804504
				c1.97052-0.6930542,3.0061035-2.8521729,2.3130493-4.8227234l-13.522583-38.448822
				C648.1947021,240.1526642,646.0355225,239.1171112,644.0650024,239.8101654z M574.3117065,260.3249512
				c-5.5535889,1.9532166-11.6387939-0.965332-13.59198-6.5188446c-1.953186-5.5534515,0.965332-11.6387939,6.5189209-13.5920105
				c5.5534058-1.9531403,11.6387939,0.9655151,13.5919189,6.5189514
				C582.7837524,252.2865601,579.8650513,258.3718262,574.3117065,260.3249512z"/>
			<g>
				
					<rect x="511.9525452" y="297.0238037" transform="matrix(0.9433563 -0.3317814 0.3317814 0.9433563 -66.2819748 212.207016)" class="st5" width="152.7816772" height="6.3954859"/>
				<path class="st5" d="M662.2955933,282.3511353l-142.6708984,50.1777954
					c-0.4405518,0.1549683-0.9233398-0.0765991-1.0783691-0.5172424l-0.6523438-1.8548889l144.1275635-50.690094
					l0.7011719,1.9937134C662.850769,281.8243713,662.6594849,282.223175,662.2955933,282.3511353z"/>
			</g>
		</g>
		<g>
			<path class="st6" d="M630.5473022,380.0588989L630.5473022,380.0588989c40.8843994,0,74.027832,33.1434021,74.027832,74.0278625
				l0,0c0,40.8844604-33.1434326,74.0278625-74.027832,74.0278625l0,0c-40.8844604,0-74.0278931-33.1434021-74.0278931-74.0278625
				l0,0C556.5194092,413.202301,589.6628418,380.0588989,630.5473022,380.0588989z"/>
			<path class="st7" d="M630.7609253,374.9801331L630.7609253,374.9801331c40.8844604,0,74.027832,33.1434021,74.027832,74.0278625
				l0,0c0,40.8844604-33.1433716,74.027832-74.027832,74.027832l0,0c-40.8844604,0-74.0278931-33.1433716-74.0278931-74.027832l0,0
				C556.7330322,408.1235352,589.8764648,374.9801331,630.7609253,374.9801331z"/>
			<path class="st8" d="M630.7609253,426.7996216c-1.0219727,0-1.850708,0.8287659-1.850708,1.850708v18.506958h-18.506958
				c-1.0219727,0-1.850708,0.8287354-1.850708,1.850708c0,1.0219421,0.8287354,1.8506775,1.850708,1.8506775h18.506958v18.506958
				c0,1.0219727,0.8287354,1.850708,1.850708,1.850708c1.0219116,0,1.850647-0.8287354,1.850647-1.850708v-18.506958h18.506958
				c1.0219727,0,1.850708-0.8287354,1.850708-1.8506775c0-1.0219727-0.8287354-1.850708-1.850708-1.850708h-18.506958v-18.506958
				C632.6115723,427.6283875,631.7828369,426.7996216,630.7609253,426.7996216z"/>
		</g>
	</g>
</g>
</svg>
