<svg xmlns="http://www.w3.org/2000/svg" width="1em" height="1em" viewBox="0 0 511.755 511.75">
  <g id="success" transform="translate(0 -0.003)">
    <path id="Path_1" data-name="Path 1" d="M436.891,74.867c-99.819-99.819-262.208-99.819-362.027,0-99.819,99.8-99.819,262.229,0,362.027a256.279,256.279,0,0,0,362.026,0C536.709,337.1,536.709,174.664,436.891,74.867ZM398.96,185.629,249.627,334.963a21.322,21.322,0,0,1-30.166,0L134.128,249.63a21.33,21.33,0,0,1,30.165-30.165l70.251,70.251L368.8,155.465a21.33,21.33,0,1,1,30.165,30.164Z" fill="#36b475"/>
  </g>
</svg>

